<svg width="40" height="40" viewBox="0 0 40 40" xmlns="http://www.w3.org/2000/svg"><g id="0.-首頁" stroke="none" stroke-width="1" fill="none" fill-rule="evenodd"><g id="CUB-WEB_Guildeline" transform="translate(-140 -2817)"><g id="Group-42" transform="translate(80 2757)"><g id="icon_40_line_hover" transform="translate(60 60)"><circle id="Oval" stroke="#48B648" fill="#48B648" cx="20" cy="20" r="19.5"/><path d="M29.152 17.105a.26.26 0 01-.26.26h-2.54v.978h2.54a.26.26 0 01.26.26v.931a.26.26 0 01-.26.26h-2.54v.979h2.54a.26.26 0 01.26.258v.933a.26.26 0 01-.26.259h-3.735a.259.259 0 01-.184-.075c0-.002-.002-.003-.003-.005a.257.257 0 01-.073-.179v-5.791a.26.26 0 01.072-.179l.004-.005.003-.002a.26.26 0 01.18-.074h3.737a.26.26 0 01.26.26v.932zm-5.164 4.86a.259.259 0 01-.26.258h-.935a.247.247 0 01-.066-.009h-.004a.23.23 0 01-.018-.007l-.008-.002-.012-.005-.013-.007a.141.141 0 01-.023-.014l-.003-.001a.262.262 0 01-.066-.064l-2.665-3.59v3.44a.26.26 0 01-.26.259h-.935a.259.259 0 01-.26-.259v-5.792c0-.143.116-.258.26-.258h.944l.013.001.014.002h.01l.016.004a.1.1 0 00.009.002l.015.006.009.003a.06.06 0 01.015.006l.008.004.014.007.008.005.013.01.006.005a.265.265 0 01.035.032l.002.001a.269.269 0 01.02.027l2.662 3.584v-3.441a.26.26 0 01.26-.258h.935c.144 0 .26.115.26.258v5.792zm-6.437 0a.26.26 0 01-.26.258h-.935a.259.259 0 01-.26-.259v-5.792c0-.143.116-.258.26-.258h.935a.26.26 0 01.26.258v5.792zm-2.255 0a.26.26 0 01-.26.258H11.3a.26.26 0 01-.18-.072l-.003-.004-.004-.004a.258.258 0 01-.073-.179v-5.792a.26.26 0 01.26-.259h.936a.26.26 0 01.26.26v4.6h2.54a.26.26 0 01.26.258v.933zm18.037-3.177C33.333 12.84 27.352 8 20 8S6.667 12.84 6.667 18.788c0 5.333 4.743 9.8 11.15 10.644.435.093 1.026.285 1.175.656.135.336.088.862.043 1.201l-.19 1.138c-.058.336-.268 1.315 1.155.717s7.678-4.508 10.476-7.718c1.931-2.113 2.857-4.257 2.857-6.638z" id="Fill-1" fill="#FFF"/></g></g></g></g></svg>